<?xml version="1.0" encoding="UTF-8"?><svg id="a" xmlns="http://www.w3.org/2000/svg" viewBox="0 0 461.77 131.88"><defs><style>.b{fill:#202124;}</style></defs><path class="b" d="M384.7,101.03L315.2,.63c-.27-.39-.72-.63-1.19-.63h-37.4c-1.17,0-1.86,1.32-1.19,2.28l89.34,128.97c.27,.39,.72,.63,1.19,.63h37.11c.48,0,.92-.23,1.19-.63l57.27-82.64c.67-.96-.02-2.28-1.19-2.28h-35.82c-.48,0-.93,.24-1.2,.63l-37.16,54.06c-.35,.5-1.09,.5-1.43,0Z"/><path class="b" d="M109.55,30.86L40.05,131.25c-.27,.39-.72,.63-1.19,.63H1.45c-1.17,0-1.86-1.32-1.19-2.28L89.6,.63c.27-.39,.72-.63,1.19-.63h37.11c.48,0,.92,.23,1.19,.63l39.44,56.92,17.83,25.72c.67,.96-.02,2.28-1.19,2.28h-35.82c-.48,0-.93-.24-1.2-.63L110.99,30.86c-.35-.5-1.09-.5-1.43,0Z"/><path class="b" d="M309.46,131.85h-35.76c-.46,0-.92-.21-1.18-.61L183.27,2.33c-.67-.97,0-2.31,1.18-2.31h35.71c.46,0,.92,.21,1.18,.61l89.3,128.96c.67,.97,0,2.25-1.18,2.25Z"/></svg>